# xmcd CD database file
#
# Track frame offsets:
#	150
#	14763
#	27441
#	41666
#	56722
#	71390
#	82757
#	95425
#	108899
#	121181
#	133684
#	148341
#
# Disc length: 2222 seconds
#
# Revision: 2
# Processed by: cddbd v1.5.2PL0 Copyright (c) Steve Scherf et al.
# Submitted via: CDex 1.70beta2
#
DISCID=a308ac0c
DTITLE=Steirerbluat - I will leb'n
DYEAR=1900
DGENRE=Pop-Folk
TTITLE0=Steirerbluatzeit
TTITLE1=Boarisch is super
TTITLE2=I will leb'n
TTITLE3=Flieg mit mir
TTITLE4=Du bist mein Stern
TTITLE5=Auf d' Nacht
TTITLE6=Weil I auf Madl so wie...
TTITLE7=Alle alle alle san heit...
TTITLE8=Hallo Freunde hallo
TTITLE9=A starker Tag
TTITLE10=I mog die Sonn'
TTITLE11=Steirerbluat Hitmix
EXTD=
EXTT0=
EXTT1=
EXTT2=
EXTT3=
EXTT4=
EXTT5=
EXTT6=
EXTT7=
EXTT8=
EXTT9=
EXTT10=
EXTT11=
PLAYORDER=
